<svg xmlns="http://www.w3.org/2000/svg" xmlns:xlink="http://www.w3.org/1999/xlink">   
    <symbol>
        <!-- ícone de carrinho -->
        <g id="hpa-cart">
            <path d="M3.375 1.58325L1 4.74992V15.8333C1 16.2532 1.16681 16.6559 1.46375 16.9528C1.76068 17.2498 2.16341 17.4166 2.58333 17.4166H13.6667C14.0866 17.4166 14.4893 17.2498 14.7863 16.9528C15.0832 16.6559 15.25 16.2532 15.25 15.8333V4.74992L12.875 1.58325H3.375Z" stroke="#43483B" stroke-width="1.5" stroke-linecap="round" stroke-linejoin="round"/>
            <path d="M1 4.75H15.25" stroke="#43483B" stroke-width="1.5" stroke-linecap="round" stroke-linejoin="round"/>
            <path d="M11.2917 7.9165C11.2917 8.75636 10.9581 9.56181 10.3642 10.1557C9.77035 10.7495 8.96489 11.0832 8.12504 11.0832C7.28519 11.0832 6.47973 10.7495 5.88587 10.1557C5.292 9.56181 4.95837 8.75636 4.95837 7.9165" stroke="#43483B" stroke-width="1.5" stroke-linecap="round" stroke-linejoin="round"/>
        </g>

        <!-- ícone de usuário -->
        <g id="hpa-profile">
            <path d="M9.63285 4.07153C8.96181 4.07153 8.30583 4.27052 7.74788 4.64333C7.18993 5.01614 6.75505 5.54604 6.49826 6.166C6.24146 6.78596 6.17427 7.46815 6.30518 8.1263C6.4361 8.78445 6.75924 9.389 7.23374 9.8635C7.70824 10.338 8.31279 10.6611 8.97094 10.7921C9.62908 10.923 10.3113 10.8558 10.9312 10.599C11.5512 10.3422 12.0811 9.90731 12.4539 9.34936C12.8267 8.79141 13.0257 8.13543 13.0257 7.46439C13.0257 6.56455 12.6682 5.70156 12.032 5.06528C11.3957 4.42899 10.5327 4.07153 9.63285 4.07153ZM9.63285 9.5001C9.23022 9.5001 8.83664 9.38071 8.50187 9.15702C8.16709 8.93334 7.90617 8.6154 7.75209 8.24342C7.59802 7.87145 7.5577 7.46213 7.63625 7.06724C7.7148 6.67235 7.90868 6.30962 8.19338 6.02492C8.47808 5.74022 8.84081 5.54634 9.2357 5.46779C9.63059 5.38924 10.0399 5.42956 10.4119 5.58364C10.7839 5.73771 11.1018 5.99864 11.3255 6.33341C11.5492 6.66818 11.6686 7.06176 11.6686 7.46439C11.668 8.00413 11.4534 8.52161 11.0717 8.90326C10.6901 9.28492 10.1726 9.49956 9.63285 9.5001Z" fill="#43483B"/>
            <path d="M9.63282 0C7.75389 0 5.91716 0.557165 4.3549 1.60104C2.79263 2.64491 1.57499 4.12861 0.855961 5.86451C0.136929 7.6004 -0.0512029 9.51054 0.315357 11.3534C0.681916 13.1962 1.5867 14.8889 2.9153 16.2175C4.2439 17.5461 5.93664 18.4509 7.77946 18.8175C9.62228 19.184 11.5324 18.9959 13.2683 18.2769C15.0042 17.5578 16.4879 16.3402 17.5318 14.7779C18.5756 13.2156 19.1328 11.3789 19.1328 9.5C19.1299 6.98132 18.1281 4.56663 16.3472 2.78566C14.5662 1.00469 12.1515 0.00287356 9.63282 0ZM5.56139 16.5415V15.6071C5.56193 15.0674 5.77658 14.5499 6.15823 14.1683C6.53988 13.7866 7.05736 13.572 7.5971 13.5714H11.6685C12.2083 13.572 12.7257 13.7866 13.1074 14.1683C13.4891 14.5499 13.7037 15.0674 13.7042 15.6071V16.5415C12.4687 17.263 11.0636 17.6432 9.63282 17.6432C8.20204 17.6432 6.79695 17.263 5.56139 16.5415ZM15.056 15.5569C15.0424 14.6669 14.6798 13.8177 14.0462 13.1925C13.4126 12.5673 12.5587 12.216 11.6685 12.2143H7.5971C6.70694 12.216 5.85306 12.5673 5.21945 13.1925C4.58583 13.8177 4.2232 14.6669 4.20967 15.5569C2.97913 14.4581 2.11135 13.0115 1.72124 11.4086C1.33113 9.80567 1.4371 8.12205 2.02511 6.58069C2.61312 5.03932 3.65543 3.71292 5.01403 2.7771C6.37264 1.84128 7.98344 1.3402 9.63315 1.3402C11.2829 1.3402 12.8937 1.84128 14.2523 2.7771C15.6109 3.71292 16.6532 5.03932 17.2412 6.58069C17.8292 8.12205 17.9352 9.80567 17.5451 11.4086C17.155 13.0115 16.2865 14.4581 15.056 15.5569Z" fill="#43483B"/>
        </g>

        <!-- ícone de exclusão -->
        <g id="hpa-delete">
            <path fill-rule="evenodd" clip-rule="evenodd" d="M9.45455 2.36364H13V3.54545H11.8182V14.1818L10.6364 15.3636H2.36364L1.18182 14.1818V3.54545H0V2.36364H3.54545V1.18182C3.54545 0.868381 3.66997 0.56778 3.8916 0.346146C4.11323 0.124513 4.41384 0 4.72727 0H8.27273C8.58616 0 8.88676 0.124513 9.1084 0.346146C9.33003 0.56778 9.45455 0.868381 9.45455 1.18182V2.36364ZM8.27273 1.18182H4.72727V2.36364H8.27273V1.18182ZM2.36364 14.1818H10.6364V3.54545H2.36364V14.1818ZM4.72727 4.72727H3.54545V13H4.72727V4.72727ZM5.90909 4.72727H7.09091V13H5.90909V4.72727ZM8.27273 4.72727H9.45455V13H8.27273V4.72727Z" fill="#F1A1A3"/>
        </g>

        <!-- ícone de busca -->
        <g id="hpa-search">
            <path d="M14 13.2678L10.0893 9.35711C11.0291 8.22892 11.4977 6.78185 11.3977 5.31693C11.2977 3.85202 10.6368 2.48205 9.55246 1.49202C8.46811 0.501988 7.04382 -0.0318806 5.57588 0.00147384C4.10793 0.0348283 2.70936 0.632837 1.6711 1.6711C0.632837 2.70936 0.0348283 4.10793 0.00147384 5.57588C-0.0318806 7.04382 0.501988 8.46811 1.49202 9.55246C2.48205 10.6368 3.85202 11.2977 5.31693 11.3977C6.78185 11.4977 8.22892 11.0291 9.35711 10.0893L13.2678 14L14 13.2678ZM1.05418 5.71468C1.05418 4.79292 1.32752 3.89186 1.83962 3.12545C2.35172 2.35903 3.07959 1.76168 3.93118 1.40894C4.78278 1.0562 5.71985 0.963907 6.62389 1.14373C7.52794 1.32356 8.35836 1.76743 9.01014 2.41921C9.66193 3.07099 10.1058 3.90141 10.2856 4.80546C10.4654 5.70951 10.3732 6.64658 10.0204 7.49817C9.66767 8.34976 9.07032 9.07764 8.30391 9.58974C7.5375 10.1018 6.63644 10.3752 5.71468 10.3752C4.47906 10.3738 3.29444 9.88235 2.42072 9.00863C1.54701 8.13492 1.05555 6.9503 1.05418 5.71468Z" fill="#4F4242"/>
        </g>

        <!-- ícone de menu hamburguer -->
        <g id="hpa-hamburguer-menu">
            <path d="M1 10.6667H30" stroke="#43483B" stroke-width="2" stroke-linecap="round" stroke-linejoin="round"/>
            <path d="M1 1H30" stroke="#43483B" stroke-width="2" stroke-linecap="round" stroke-linejoin="round"/>
            <path d="M1 20.3333H30" stroke="#43483B" stroke-width="2" stroke-linecap="round" stroke-linejoin="round"/>
        </g>

        <!-- arrow left -->
        <g id="nav-thin-caret--left">
            <path d="M9.50098 12.855L4.15498 7.49902L9.50098 2.14902L7.85498 0.499023L0.85498 7.49902L7.85498 14.499L9.50098 12.855Z" fill="#251203"/>
        </g>
        
        <!-- arrow right -->
        <g id="nav-thin-caret--right">
            <path d="M0.499508 2.14498L5.84551 7.50098L0.499508 12.851L2.14551 14.501L9.14551 7.50098L2.14551 0.500977L0.499508 2.14498Z" fill="#251203"/>
        </g>
        
        <!-- arrow down -->
        <g id="nav-caret--down">
            <path d="M8.5746 1.02251e-07L4.85774 3.70992L1.14504 1.36544e-08L5.79279e-08 1.14226L4.85774 6L9.71548 1.14226L8.5746 1.02251e-07Z" fill="#251203"/>
        </g>
        
        <!-- arrow down -->
        <g id="nav-caret--up">
            <path d="M1.14024 6L4.85711 2.29008L8.56981 6L9.71484 4.85774L4.85711 -2.12338e-07L-0.000631545 4.85774L1.14024 6Z" fill="#251203"/>
        </g>
        
        <!-- filter -->
        <g id="mpa-filter-settings">
            <path d="M10.447 17.905C10.6126 17.8238 10.7521 17.6979 10.8499 17.5415C10.9476 17.3851 10.9996 17.2044 11 17.02V11.7C11 11.438 11.105 11.186 11.293 11L17.414 4.94602C17.789 4.57502 18 4.07102 18 3.54602V0.990018C17.9995 0.859315 17.9732 0.729998 17.9226 0.60947C17.8721 0.488942 17.7982 0.379569 17.7053 0.287613C17.6124 0.195656 17.5023 0.122922 17.3813 0.0735724C17.2603 0.0242231 17.1307 -0.00077185 17 1.81586e-05H1C0.447 1.81586e-05 0 0.442018 0 0.990018V3.54602C0 4.07102 0.211 4.57502 0.586 4.94602L6.707 11C6.79974 11.0915 6.8734 11.2005 6.92369 11.3206C6.97399 11.4408 6.99993 11.5698 7 11.7V18.01C7 18.745 7.782 19.223 8.447 18.894L10.447 17.905V17.905Z" fill="#F1A1A3"/>
        </g>
    </symbol>
</svg>