<svg width="20" height="20" viewBox="0 0 20 20" fill="none" xmlns="http://www.w3.org/2000/svg">
<path d="M9.90003 0.5C8.00003 0.5 6.19999 1.1 4.59999 2.1C2.99999 3.1 1.79999 4.6 1.09999 6.4C0.399985 8.1 0.199985 10 0.599985 11.9C0.999985 13.7 1.89996 15.4 3.19996 16.8C4.49996 18.1 6.19999 19 8.09999 19.4C9.89999 19.8 11.9 19.6 13.6 18.9C15.3 18.2 16.8 17 17.9 15.4C18.9 13.8 19.5 12 19.5 10.1C19.5 7.6 18.5 5.2 16.7 3.4C14.8 1.5 12.4 0.5 9.90003 0.5ZM5.80006 17V16.1C5.80006 15.6 6.00003 15 6.40003 14.7C6.80003 14.3 7.30006 14.1 7.80006 14.1H11.9C12.4 14.1 12.9001 14.3 13.3001 14.7C13.7001 15.1 13.9 15.6 13.9 16.1V17C12.7 17.7 11.3001 18.1 9.80006 18.1C8.30006 18.1 7.10006 17.8 5.80006 17ZM15.3001 16.1C15.3001 15.2 14.9001 14.4 14.3001 13.7C13.7001 13.1 12.8 12.7 11.9 12.7H7.80006C6.90006 12.7 6.10003 13.1 5.40003 13.7C4.80003 14.3 4.40003 15.2 4.40003 16.1C3.20003 15 2.30003 13.6 1.90003 12C1.50003 10.4 1.59996 8.7 2.19996 7.2C2.79996 5.7 3.79996 4.3 5.19996 3.4C6.59996 2.5 8.20006 2 9.80006 2C11.4001 2 13.1 2.5 14.4 3.4C15.7 4.3 16.8 5.7 17.4 7.2C18 8.7 18.1 10.4 17.7 12C17.3 13.6 16.6001 15 15.3001 16.1Z" fill="#CA7D62"/>
</svg>
